<svg xmlns="http://www.w3.org/2000/svg" xmlns:xlink="http://www.w3.org/1999/xlink" id="Layer_1" x="0" y="0" version="1.1" viewBox="-197 320.9 200 200" xml:space="preserve" style="enable-background:new -197 320.9 200 200"><style type="text/css">.st0{fill:#fff}</style><path d="M-83.1,420.9c0,7.7-6.2,13.9-13.9,13.9c-7.7,0-13.9-6.2-13.9-13.9s6.2-13.9,13.9-13.9	C-89.3,407-83.1,413.2-83.1,420.9z M-41.4,418.8c0,0-19.7,39.2-55.6,39.2c-33.3,0-55.7-39.2-55.7-39.2s20.6-35,55.7-35	C-61.3,383.8-41.4,418.8-41.4,418.8z M-73.9,420.9c0-12.8-10.4-23.2-23.2-23.2s-23.2,10.4-23.2,23.2s10.4,23.2,23.2,23.2	C-84.3,444.1-73.9,433.7-73.9,420.9z" class="st0"/></svg>