<svg xmlns="http://www.w3.org/2000/svg" xmlns:xlink="http://www.w3.org/1999/xlink" id="Layer_1" x="0" y="0" version="1.1" viewBox="-197 320.9 200 200" xml:space="preserve" style="enable-background:new -197 320.9 200 200"><style type="text/css">.st0{fill:#fff}</style><g><path d="M-52,399c5.6-5.6,5-15.3-1.4-21.7c-6.4-6.3-16.1-7-21.7-1.4l-7.2,7.2l23.1,23.1L-52,399L-52,399z" class="st0"/><path d="M-112.4,459.4l37.7-37.7l4.7,4.7l9.7-9.7l-32.6-32.6l-9.7,9.7l4.7,4.7l-37.7,37.7l-10.4,28.8l4.6,4.6 L-112.4,459.4L-112.4,459.4z M-91.2,405.1l10,10l-38.4,38.4l-15.9,5.9l5.9-15.9L-91.2,405.1L-91.2,405.1z" class="st0"/></g></svg>