<svg xmlns="http://www.w3.org/2000/svg" xmlns:xlink="http://www.w3.org/1999/xlink" id="Layer_1" x="0" y="0" version="1.1" viewBox="-197 320.9 200 200" xml:space="preserve" style="enable-background:new -197 320.9 200 200"><style type="text/css">.st0{fill:#e3e4e8}.st1{fill:#fff}.st2{fill:#dd272f}.st3{fill:#adadad}</style><g><circle cx="-97" cy="420.9" r="100" class="st0"/><path d="M-33.9,470.7h-126.2c-3.8,0-6.9-3.1-6.9-6.9v-136c0-3.8,3.1-6.9,6.9-6.9h126.2c3.8,0,6.9,3.1,6.9,6.9v136.1 C-27,467.6-30.1,470.7-33.9,470.7z" class="st1"/><g><circle cx="-97" cy="356.7" r="26.6" class="st2"/></g><g><rect width="63.7" height="6.1" x="-129.5" y="417" class="st3"/><rect width="73.7" height="6.1" x="-134.5" y="429.2" class="st3"/><rect width="45.8" height="6.1" x="-120.5" y="440.8" class="st3"/><rect width="71" height="6.1" x="-133.1" y="404.9" class="st3"/></g><g><rect width="63.7" height="6.1" x="-129.5" y="465" class="st3"/><rect width="73.7" height="6.1" x="-134.5" y="477.2" class="st3"/><rect width="45.8" height="6.1" x="-120.5" y="488.8" class="st3"/><rect width="71" height="6.1" x="-133.1" y="452.9" class="st3"/></g></g><rect width="6" height="17.8" x="-100" y="341.9" class="st1"/><circle cx="-97" cy="368.3" r="4" class="st1"/></svg>